<svg width="800" height="600" viewBox="0 0 800 600" fill="none" xmlns="http://www.w3.org/2000/svg">
<path d="M400 351.64C400 351.64 425.26 314.48 426.06 244.5C426.06 244.5 456.46 322.88 471.66 351.64C471.66 351.64 456.46 380.4 426.06 409.16C426.06 409.16 400 351.64 400 351.64Z" fill="#D946EF"/>
<path d="M400 351.64C400 351.64 374.74 314.48 373.94 244.5C373.94 244.5 343.54 322.88 328.34 351.64C328.34 351.64 343.54 380.4 373.94 409.16C373.94 409.16 400 351.64 400 351.64Z" fill="#D946EF"/>
<path d="M425.841 244.5C425.841 244.5 456.241 322.88 471.441 351.64C471.441 351.64 517.041 351.64 547.441 360.04C547.441 360.04 487.441 322.88 425.841 244.5Z" fill="#D946EF"/>
<path d="M374.159 244.5C374.159 244.5 343.759 322.88 328.559 351.64C328.559 351.64 282.959 351.64 252.559 360.04C252.559 360.04 312.559 322.88 374.159 244.5Z" fill="#D946EF"/>
<path d="M471.39 351.64C471.39 351.64 456.19 380.4 425.79 409.16C425.79 409.16 487.39 388.8 547.39 360.04C547.39 360.04 516.99 351.64 471.39 351.64Z" fill="#D946EF"/>
<path d="M328.61 351.64C328.61 351.64 343.81 380.4 374.21 409.16C374.21 409.16 312.61 388.8 252.61 360.04C252.61 360.04 283.01 351.64 328.61 351.64Z" fill="#D946EF"/>
<path d="M400 190.84C400 190.84 412.6 250.84 425.2 284.44C425.2 284.44 400 351.64 400 351.64C400 351.64 400 351.64 400 351.64C400 351.64 374.8 284.44 387.4 250.84C400 217.24 400 190.84 400 190.84Z" fill="#F472B6"/>
<path d="M400 285.42C400 285.42 412.6 293.82 419 314.22C419 314.22 400 351.42 400 351.42C400 351.42 381 314.22 387.4 293.82C393.8 273.42 400 285.42 400 285.42Z" fill="#F9A8D4"/>
<path d="M400 314.52C400 314.52 406.3 322.92 412.6 331.32C412.6 331.32 400 351.72 400 351.72C400 351.72 387.4 331.32 393.7 322.92C400 314.52 400 314.52 400 314.52Z" fill="#EC4899"/>
<path d="M400 250.84C400 250.84 406.3 267.64 412.6 284.44C412.6 284.44 400 314.84 400 314.84C400 314.84 387.4 284.44 393.7 267.64C400 250.84 400 250.84 400 250.84Z" fill="#F472B6"/>
<path d="M400 251.01C400 251.01 406.3 251.01 406.3 259.41C406.3 259.41 400 285.81 400 285.81C400 285.81 393.7 259.41 393.7 251.01C393.7 242.61 400 251.01 400 251.01Z" fill="#F9A8D4"/>
<path d="M425.26 284.35C425.26 284.35 431.56 292.75 425.26 314.35C425.26 314.35 400 351.55 400 351.55C400 351.55 412.66 284.35 425.26 284.35Z" fill="#EC4899"/>
<path d="M374.74 284.35C374.74 284.35 368.44 292.75 374.74 314.35C374.74 314.35 400 351.55 400 351.55C400 351.55 387.34 284.35 374.74 284.35Z" fill="#EC4899"/>
</svg>